<svg version="1.1" id="Layer_1" width="109.124" height="18" xmlns="http://www.w3.org/2000/svg" xmlns:xlink="http://www.w3.org/1999/xlink" x="0px" y="0px"
	 viewBox="0 0 109.1 18" style="enable-background:new 0 0 109.1 18;" xml:space="preserve">
<style type="text/css">
	.st0{fill:#0D1136;}
	.st1{fill:#00A7E1;}
</style>
<g>
	<path class="st0" d="M1,2.7l1.4-0.9L1.6,5L0,5l0.2-3.2l13.1,0.1l0.1,3.2l-1.6,0l-0.6-3.3l1.3,1L1,2.7z M7,12.5l3.4,0.3l0,0.8
		l-7.4-0.1l0-0.8l3.3-0.2L7,12.5z M5.2,7.3c0-1.8,0-3.7,0-5.5l3.1,0C8.2,3.6,8.2,5.5,8.2,7.4l0,0.8c0,1.8,0,3.7,0,5.5l-3.1,0
		c0.1-1.8,0.1-3.7,0.1-5.5L5.2,7.3z"/>
	<path class="st0" d="M31.5,13.4c0.1-0.8,0.1-2.8,0.1-3.9V8.6c0-1,0-1.6-0.1-2.3l-2-0.2V5.4l5-1.2l0.4,0.2L34.8,7v2.5
		c0,1.2,0,3.1,0.1,3.9H31.5z M36.5,12.6v0.8h-6.8v-0.8l2.8-0.4h1.3L36.5,12.6z"/>
	<path class="st0" d="M38.3,12.9l0-2.2h1.8l0.7,2.3l-1.4-0.4v-0.7c1.1,0.5,2.1,0.8,3.4,0.8c1.8,0,2.8-0.5,2.8-1.3
		c0-0.7-0.7-1.1-2.4-1.5l-1.4-0.3c-2.1-0.5-3.3-1.3-3.3-2.6c0-1.5,1.9-2.8,5.2-2.8c1.6,0,2.8,0.3,4.1,0.8l-0.2,2h-1.8l-0.7-2.1
		l1.3,0.4v0.6c-0.9-0.4-1.7-0.7-2.8-0.7c-1.5,0-2.3,0.4-2.3,1.2c0,0.7,0.5,1,2.4,1.4L44.8,8c2.7,0.6,3.7,1.5,3.7,2.8
		c0,1.7-2.1,2.9-5.8,2.9C41.1,13.6,39.7,13.4,38.3,12.9z"/>
	<path class="st1" d="M60.7,10.5c0-1.1-0.9-1.6-2.9-2.1l-1.1-0.3c-3-0.9-4.9-2-4.9-3.9c0-2.2,2.7-3.5,6.5-3.5c1.9,0,3.6,0.4,4.8,1
		l-0.2,2.5h-2.1l-0.7-2.8l2,0.6v0.9c-1.4-0.8-2.4-1.2-3.9-1.2c-1.9,0-3.3,0.7-3.3,1.9c0,1.1,1,1.7,2.8,2.2l1.2,0.3
		c3.6,1,5,2.1,5,3.9c0,2.2-2.6,3.6-6.8,3.6c-2.1,0-4.2-0.4-5.7-1l0.2-2.7h2.1l0.7,2.9l-2-0.5v-0.9c1.7,0.7,2.8,1.1,4.6,1.1
		C59.3,12.6,60.7,11.8,60.7,10.5z"/>
	<path class="st1" d="M66.3,1.7l-2-0.2V0.8l4.9-0.8l0.4,0.2l-0.1,2.6v3.8l0.1,0.2v2.9c0,1.2,0,3.1,0.1,3.9h-3.5
		c0.1-0.8,0.1-2.8,0.1-3.9V1.7z M71.2,12.8v0.8h-6.8v-0.8l2.8-0.4h1.3L71.2,12.8z M78,7.7v1.9c0,1.2,0,3.1,0.1,3.9h-3.5
		c0.1-0.8,0.1-2.7,0.1-3.9V7.9c0-1.5-0.5-1.9-1.9-1.9c-1.2,0-2.3,0.5-3.7,1.4h-0.8V6.2h1.6l-1.1,0.4c1.6-1.5,3.5-2.3,5.5-2.3
		C76.6,4.4,78,5.4,78,7.7z M77,12.4l2.7,0.4v0.8h-6.8v-0.8l2.7-0.4H77z"/>
	<path class="st1" d="M79.4,8.8c0-3,3.1-4.7,6.6-4.7c3.5,0,6.6,1.7,6.6,4.7c0,3-2.9,4.7-6.6,4.7C82.3,13.6,79.4,11.8,79.4,8.8z
		 M89.1,8.9c0-2.6-1.1-3.8-3-3.8c-2,0-3,1.3-3,3.8c0,2.6,1.1,3.8,3,3.8C88,12.7,89.1,11.4,89.1,8.9z"/>
	<path id="Path_2699" class="st1" d="M35.3,2.1c0,0.8-0.9,1.4-1.9,1.4c0,0,0,0,0,0c-1.1,0-1.9-0.6-1.9-1.4c0-0.8,0.9-1.4,2-1.4
		C34.4,0.7,35.3,1.3,35.3,2.1C35.3,2,35.3,2.1,35.3,2.1z"/>
	<path class="st1" d="M96.6,8.9c0-1,0-1.5-0.1-2.2l-1.9-0.2V5.7l4.6-1.2l0.4,0.2l0.2,1.5l0.1,0.2v5.8l-0.1,0.2V14
		c0,1.2,0,2.6,0.1,4.1h-3.4c0.1-1.5,0.1-2.8,0.1-4V8.9z M102,17.3v0.8h-7.4v-0.8l2.9-0.4h1.6L102,17.3z M102.5,5.9
		c-1.2,0-2.5,0.7-4,1.7l-0.2-0.3c1.6-1.8,3.4-2.7,5.5-2.7c3,0,5.3,1.7,5.3,4.7c0,2.9-2.6,4.8-5.8,4.8c-2.1,0-3.7-0.7-5-2.7l0.2-0.3
		c1.3,1.1,2.3,1.7,3.7,1.7c1.9,0,3.3-1,3.3-3.3C105.6,7,104.3,5.9,102.5,5.9z"/>
	<path class="st0" d="M15.1,1.7l-2-0.2V0.8L18-0.1l0.4,0.2l-0.1,2.6v3.8l0.1,0.2v2.9c0,1.2,0,3.1,0.1,3.9H15
		c0.1-0.8,0.1-2.8,0.1-3.9V1.7z M20.1,12.8v0.8h-6.8v-0.8l2.8-0.4h1.3L20.1,12.8z M26.8,7.7v1.9c0,1.2,0,3.1,0.1,3.9h-3.5
		c0.1-0.8,0.1-2.7,0.1-3.9V7.9c0-1.5-0.5-1.9-1.9-1.9c-1.2,0-2.3,0.5-3.7,1.4h-0.8V6.2h1.6l-1.1,0.4c1.6-1.5,3.5-2.3,5.5-2.3
		C25.4,4.4,26.8,5.4,26.8,7.7z M25.8,12.4l2.7,0.4v0.8h-6.8v-0.8l2.7-0.4H25.8z"/>
</g>
</svg>
